# xmcd CD database file
#
# Track frame offsets:
#	150
#	20627
#	42337
#	62115
#	63927
#	81715
#	102307
#	122740
#	142520
#	164777
#	186150
#
# Disc length: 2795 seconds
#
# Revision: 13
# Processed by: cddbd v1.5.2PL0 Copyright (c) Steve Scherf et al.
# Submitted via: CDex 1.70beta3
#
DISCID=9d0ae90b
DTITLE=Every Little Thing - Time to Destination
DYEAR=1998
DGENRE=JPop
TTITLE0=For the moment
TTITLE1=Ima Demo... Anata ga Suki Dakara
TTITLE2=Face the change 
TTITLE3=Old Dreams 
TTITLE4=MONOKUROOMU
TTITLE5=All along
TTITLE6=Hometown
TTITLE7=Deatta Koro no You ni
TTITLE8=Shapes Of Love
TTITLE9=True colors
TTITLE10=Time goes by 
EXTD=YEAR: 1998
EXTT0=
EXTT1=
EXTT2=
EXTT3=
EXTT4=
EXTT5=
EXTT6=
EXTT7=
EXTT8=
EXTT9=
EXTT10=
PLAYORDER=
